PathFileType	4	(x/y/z)	TRC_MarkerData\Passive\Passive_Pref0003.trc
DataRate	CameraRate	NumFrames	NumMarkers	Units	OrigDataRate	OrigDataStartFrame	OrigNumFrames
240	240	4	50	mm	240	226	300
Frame#	Time	R_AC			L_AC			HEAD			STERN			C7			L_IC			R_IC			L_ASIS			R_ASIS			L_GT			R_GT			L_PSIS			R_PSIS			SACRAL			L_LAT_KNEE			L_MED_KNEE			R_LAT_KNEE			R_MED_KNEE			L_LAT_ANK			L_MED_ANK			R_LAT_ANK			R_MED_ANK			L_THIGH_PROX_POST			L_THIGH_PROX_ANT			L_THIGH_DIST_ANT			L_THIGH_DIST_POST			R_THIGH_PROX_POST			R_THIGH_PROX_ANT			R_THIGH_DIST_ANT			R_THIGH_DIST_POST			L_SHANK_PROX_POST			L_SHANK_PROX_ANT			L_SHANK_DIST_ANT			L_SHANK_DIST_POST			R_SHANK_PROX_POST			R_SHANK_PROX_ANT			R_SHANK_DIST_ANT			R_SHANK_DIST_POST			L_HEEL_LAT			L_HEEL_SUP			L_HEEL_MED			R_HEEL_LAT			R_HEEL_SUP			R_HEEL_MED			L_1ST_MET			L_5TH_MET			L_TOE			R_1ST_MET			R_5TH_MET			R_TOE			
		X1	Y1	Z1	X2	Y2	Z2	X3	Y3	Z3	X4	Y4	Z4	X5	Y5	Z5	X6	Y6	Z6	X7	Y7	Z7	X8	Y8	Z8	X9	Y9	Z9	X10	Y10	Z10	X11	Y11	Z11	X12	Y12	Z12	X13	Y13	Z13	X14	Y14	Z14	X15	Y15	Z15	X16	Y16	Z16	X17	Y17	Z17	X18	Y18	Z18	X19	Y19	Z19	X20	Y20	Z20	X21	Y21	Z21	X22	Y22	Z22	X23	Y23	Z23	X24	Y24	Z24	X25	Y25	Z25	X26	Y26	Z26	X27	Y27	Z27	X28	Y28	Z28	X29	Y29	Z29	X30	Y30	Z30	X31	Y31	Z31	X32	Y32	Z32	X33	Y33	Z33	X34	Y34	Z34	X35	Y35	Z35	X36	Y36	Z36	X37	Y37	Z37	X38	Y38	Z38	X39	Y39	Z39	X40	Y40	Z40	X41	Y41	Z41	X42	Y42	Z42	X43	Y43	Z43	X44	Y44	Z44	X45	Y45	Z45	X46	Y46	Z46	X47	Y47	Z47	X48	Y48	Z48	X49	Y49	Z49	X50	Y50	Z50	

226	0.94064	345.91	1543.5	492.68	329.19	1568.6	101.55	454.6	1850.8	314.29	435.8	1516.6	294.57	292.89	1597.6	301.14	342.79	1111.5	127.56	361.45	1126.9	467.04	412.66	1049.4	160.49	424.17	1052.6	429.59	335.45	965.29	108.3	340.5	979.63	480.85	210.63	1062.7	252.25	219.86	1071.4	360.8	202.05	1042.9	308.66	442.37	564.96	117.57	460.22	562.46	252.59	370.48	555.78	436.14	392.4	558.92	311.58	122.91	243.84	140.07	123.02	247.57	218.34	291.06	103.31	369.52	323.9	123.57	274.45	356.21	809.82	114.4	420.58	822.52	110.7	440.65	749.05	113.55	376.7	738.69	117.63	332.43	799.03	468.65	399.27	803.02	478.31	398.96	729.44	466.75	332.15	725.06	453.26	414.07	519.7	125.62	456.51	505.6	137.48	426.22	465.65	144.67	377.41	479.97	131.92	279.41	405.08	417.62	347.38	406.58	438.52	348.38	333.3	424.84	281.19	329.37	405.36	28.228	220.24	142.51	35.33	245.69	178.72	22.414	217.08	210.2	225.66	53.109	337.5	221.88	79.721	301.72	240.82	52.045	271.93	209.8	92.219	237.71	194.13	96.252	132.14	257.91	69.977	214.22	470.98	44.939	296.64	426.16	35.326	402.99	509.55	49.949	352.11
227	0.94482	350.89	1544.2	492.74	333.98	1569.2	101.62	459.56	1851.4	314.21	440.7	1517.2	294.61	297.81	1598.3	301.22	347.75	1112.1	127.74	365.91	1127.5	467.19	417.7	1050.3	161	428.53	1053	430.11	341.08	966.28	108.36	344.35	980.07	480.9	215.45	1063.3	251.97	224.44	1072.1	360.55	206.79	1043.6	308.34	451.15	566.52	118.12	468.65	564.48	253.24	371.45	556.12	436.21	393.73	559.1	311.75	137.1	240.06	139.61	136.86	243.81	217.82	291.37	103.71	369.48	324.31	123.97	274.45	363.01	810.92	114.35	427.38	824.11	111.2	447.97	750.84	114	384.07	739.94	117.7	335.07	799.66	468.57	401.86	803.23	478.49	401.14	729.62	466.86	334.33	725.69	453.16	423.6	520.79	126.1	466.2	507.45	138.15	436.57	466.98	145.24	387.58	480.47	132.27	280.05	405.63	417.45	347.95	407.01	438.54	348.88	333.71	424.87	281.7	329.91	405.25	42.8	214.88	141.67	49.349	240.43	177.86	36.783	211.68	209.36	225.83	53.761	337.45	222.12	80.389	301.68	240.95	52.72	271.84	226.14	90.05	237.67	210.81	93.73	132.05	274.69	68.582	214.4	471.11	44.842	296.69	426.25	35.328	403	509.7	49.721	352.16
228	0.949	355.87	1544.9	492.8	338.77	1569.8	101.68	464.53	1851.9	314.12	445.61	1517.8	294.66	302.74	1598.9	301.29	352.71	1112.7	127.9	370.33	1128.1	467.34	422.74	1051.2	161.49	432.87	1053.3	430.6	346.68	967.22	108.41	348.2	980.48	480.93	220.27	1063.9	251.68	229.01	1072.7	360.28	211.51	1044.2	308.01	459.83	568.04	118.7	476.98	566.45	253.9	372.42	556.46	436.28	395.08	559.26	311.9	151.41	236.2	139.16	150.82	239.96	217.32	291.67	104.12	369.44	324.73	124.38	274.45	369.74	811.98	114.33	434.11	825.64	111.71	455.2	752.58	114.48	391.36	741.14	117.79	337.71	800.28	468.48	404.47	803.43	478.66	403.32	729.8	466.96	336.53	726.31	453.07	433.05	521.84	126.61	475.81	509.28	138.85	446.87	468.3	145.84	397.71	480.92	132.66	280.69	406.18	417.28	348.54	407.44	438.56	349.38	334.13	424.89	282.23	330.45	405.13	57.54	209.41	140.83	63.515	235.06	177.02	51.321	206.15	208.54	226.01	54.422	337.4	222.38	81.065	301.64	241.07	53.403	271.75	242.63	87.87	237.66	227.66	91.206	131.98	291.62	67.211	214.6	471.23	44.746	296.74	426.35	35.332	403	509.84	49.496	352.21
229	0.95318	360.84	1545.5	492.86	343.58	1570.4	101.73	469.48	1852.5	314.04	450.51	1518.3	294.7	307.67	1599.4	301.36	357.66	1113.3	128.05	374.69	1128.6	467.48	427.77	1052	161.98	437.2	1053.6	431.09	352.26	968.1	108.46	352.06	980.87	480.96	225.08	1064.5	251.37	233.56	1073.3	360	216.22	1044.8	307.66	468.4	569.52	119.3	485.21	568.37	254.59	373.42	556.79	436.34	396.43	559.41	312.05	165.84	232.27	138.74	164.9	236.04	216.85	291.96	104.53	369.41	325.15	124.79	274.45	376.42	813	114.31	440.78	827.11	112.21	462.34	754.26	114.98	398.57	742.29	117.89	340.38	800.88	468.39	407.09	803.62	478.82	405.51	729.96	467.04	338.73	726.92	452.98	442.43	522.86	127.14	485.34	511.09	139.58	457.11	469.6	146.47	407.79	481.33	133.07	281.36	406.73	417.12	349.14	407.87	438.57	349.89	334.54	424.91	282.77	330.99	405.01	72.448	203.84	140.02	77.828	229.59	176.19	66.028	200.51	207.73	226.18	55.091	337.35	222.66	81.747	301.61	241.2	54.092	271.67	259.26	85.69	237.66	244.67	88.691	131.94	308.69	65.873	214.83	471.36	44.653	296.79	426.44	35.337	403.01	509.99	49.274	352.25
